<svg xmlns="http://www.w3.org/2000/svg" xmlns:xlink="http://www.w3.org/1999/xlink" fill="#314C9C" version="1.1" id="Слой_1" x="0px" y="0px" viewBox="0 0 290 290" style="enable-background:new 0 0 290 290;" xml:space="preserve">
<path d="M0,135.9c0-0.5,0-1.1,0-1.6c0.1-0.6,0.2-1.1,0.3-1.7c0.6-4.5,1-9.1,1.8-13.6c2.7-15.5,7.9-30,15.5-43.8  c9.8-18,22.9-33.1,39.2-45.6c10.4-8,21.7-14.5,33.9-19.4c10.3-4.2,21-7.2,32-8.8c3.9-0.6,7.8-1,11.7-1.5c0.5,0,1.1,0,1.6,0  c0,7.7,0,15.3,0,23c0,3.7,2.5,6.3,6.2,6.3c2,0,4.1,0.1,6.1,0c3.3-0.1,5.9-2.5,6-5.7c0.1-7.9,0-15.7,0-23.6c0.5,0,1.1,0,1.6,0  c1.7,0.2,3.3,0.4,5,0.6c12.6,1.3,24.7,4.3,36.5,8.8c19.1,7.3,35.8,18.3,50.3,32.7c13.2,13.1,23.5,28.2,30.9,45.4  c5.1,11.9,8.7,24.2,10.4,37.1c0.4,3.3,0.8,6.5,1.2,9.8c0,0.5,0,1.1,0,1.6c-7.9,0-15.8-0.1-23.6,0c-3.1,0-5.6,2.7-5.7,5.8  c-0.1,2.3-0.1,4.5,0,6.8c0.1,3,2.6,5.6,5.7,5.7c7.9,0.1,15.7,0,23.6,0c0,0.5,0,1.1,0,1.6c-0.4,3.6-0.8,7.3-1.3,10.9  c-3.2,21.4-10.8,41.1-22.8,59c-11.9,17.8-27,32.3-45.3,43.4c-16.3,9.9-33.9,16.5-52.7,19.4c-4,0.6-8.1,1-12.2,1.5  c-0.5,0-1.1,0-1.6,0c0-7.7,0-15.4,0-23.1c0-3.4-2.5-6-5.9-6.2c-2.2-0.1-4.4-0.1-6.6,0c-3.1,0.1-5.8,2.6-5.8,5.7  c-0.1,7.9,0,15.7,0,23.6c-0.5,0-1.1,0-1.6,0c-0.6-0.1-1.1-0.2-1.7-0.3c-7.6-0.6-15.2-1.8-22.6-3.7c-13.8-3.4-26.7-8.8-38.9-16  c-10.6-6.3-20.3-13.8-29-22.5c-10-10.1-18.4-21.3-25.1-33.9C9.2,199.3,4,184,1.5,167.9c-0.6-4-1-8.1-1.5-12.1c0-0.5,0-1.1,0-1.6  c7.7,0,15.4,0,23.1,0c3.4,0,6-2.5,6.2-5.9c0.1-2.2,0.1-4.4,0-6.6c-0.1-3.1-2.6-5.8-5.7-5.8C15.7,135.8,7.9,135.9,0,135.9L0,135.9z   M191.1,155.1c9.8,0,19.5,0,29.3,0c6.5,0,11.1-5.5,10.1-11.8c-0.8-4.8-5-8.3-10.2-8.3c-19.4,0-38.8,0-58.1,0c-1.3,0-2.2-0.3-3-1.4  c-0.8-1.1-1.9-2.1-3-2.9c-0.9-0.6-1.1-1.3-1.1-2.3c0-8,0-16.1,0-24.1c0-11.3,0-22.7,0-34c0-4.1-1.9-7.3-5.7-9.1  c-3.8-1.8-7.5-1.4-10.8,1.3c-2.6,2.1-3.7,4.9-3.7,8.2c0,19.3,0,38.5,0,57.8c0,1-0.3,1.7-1.1,2.4c-6,4.8-8.3,11.1-6.6,18.6  c1.6,7.3,6.4,12,13.7,13.7c7.5,1.7,13.9-0.6,18.7-6.7c0.6-0.8,1.2-1.1,2.2-1.1C171.6,155.1,181.4,155.1,191.1,155.1L191.1,155.1z"/>
</svg>