<svg xmlns="http://www.w3.org/2000/svg" xmlns:xlink="http://www.w3.org/1999/xlink" fill="#314c9c" version="1.1" id="Слой_1" x="0px" y="0px" viewBox="0 0 110 180" style="enable-background:new 0 0 110 180;" xml:space="preserve">
<path d="M91,180H19c-10.5,0-19-8.5-19-19V19C0,8.5,8.5,0,19,0h72c10.5,0,19,8.5,19,19v142C110,171.5,101.5,180,91,180  L91,180z M54.8,167.4c3.6-0.1,6.2-2.7,6.3-6.2c0-3.3-2.7-6.1-5.8-6.2c-3.5-0.1-6.3,2.6-6.3,6C48.9,164.6,51.5,167.5,54.8,167.4  L54.8,167.4z M67.1,6.4c-8.1,0-16.2,0-24.3,0c0,2.1,0,4,0,6.1c8.1,0,16.2,0,24.3,0C67.1,10.4,67.1,8.5,67.1,6.4L67.1,6.4z   M97.6,18.8c-28.5,0-56.9,0-85.3,0c0,41.3,0,82.4,0,123.7c28.4,0,56.8,0,85.3,0C97.6,101.2,97.6,60.1,97.6,18.8L97.6,18.8z"/>
</svg>